<mxfile host="app.diagrams.net" modified="2021-07-06T10:01:59.755Z" agent="5.0 (Macintosh; Intel Mac OS X 10_15_7) AppleWebKit/537.36 (KHTML, like Gecko) Chrome/91.0.4472.114 Safari/537.36 Edg/91.0.864.54" etag="7xmha5voc51wZYqCdap5" version="14.8.4" type="github">
  <diagram id="AZSGmnTD27FDiJ8ZZ5N1" name="Page-1">
    <mxGraphModel dx="2509" dy="1529" grid="0" gridSize="10" guides="1" tooltips="1" connect="1" arrows="1" fold="1" page="0" pageScale="1" pageWidth="827" pageHeight="1169" math="0" shadow="0">
      <root>
        <mxCell id="0" />
        <mxCell id="1" parent="0" />
        <mxCell id="tynLuWOkbW0R-v78KJ2Y-110" value="StrategyManager" style="rounded=0;whiteSpace=wrap;html=1;verticalAlign=top;" vertex="1" parent="1">
          <mxGeometry x="-543" y="20" width="378" height="701" as="geometry" />
        </mxCell>
        <mxCell id="tynLuWOkbW0R-v78KJ2Y-3" style="edgeStyle=orthogonalEdgeStyle;rounded=0;orthogonalLoop=1;jettySize=auto;html=1;exitX=1;exitY=0.5;exitDx=0;exitDy=0;entryX=0;entryY=0.5;entryDx=0;entryDy=0;" edge="1" parent="1" target="tynLuWOkbW0R-v78KJ2Y-11">
          <mxGeometry relative="1" as="geometry">
            <mxPoint x="67" y="400" as="sourcePoint" />
          </mxGeometry>
        </mxCell>
        <mxCell id="tynLuWOkbW0R-v78KJ2Y-4" style="edgeStyle=orthogonalEdgeStyle;rounded=0;orthogonalLoop=1;jettySize=auto;html=1;exitX=1;exitY=0.5;exitDx=0;exitDy=0;entryX=0.006;entryY=0.609;entryDx=0;entryDy=0;entryPerimeter=0;" edge="1" parent="1" target="tynLuWOkbW0R-v78KJ2Y-30">
          <mxGeometry relative="1" as="geometry">
            <mxPoint x="67" y="400" as="sourcePoint" />
          </mxGeometry>
        </mxCell>
        <mxCell id="tynLuWOkbW0R-v78KJ2Y-5" style="edgeStyle=orthogonalEdgeStyle;rounded=0;orthogonalLoop=1;jettySize=auto;html=1;exitX=1;exitY=0.5;exitDx=0;exitDy=0;entryX=0;entryY=0.5;entryDx=0;entryDy=0;" edge="1" parent="1" target="tynLuWOkbW0R-v78KJ2Y-15">
          <mxGeometry relative="1" as="geometry">
            <mxPoint x="67" y="400" as="sourcePoint" />
          </mxGeometry>
        </mxCell>
        <mxCell id="tynLuWOkbW0R-v78KJ2Y-6" style="edgeStyle=orthogonalEdgeStyle;rounded=0;orthogonalLoop=1;jettySize=auto;html=1;exitX=1;exitY=0.5;exitDx=0;exitDy=0;entryX=0;entryY=0.5;entryDx=0;entryDy=0;strokeWidth=1;" edge="1" parent="1" target="tynLuWOkbW0R-v78KJ2Y-24">
          <mxGeometry relative="1" as="geometry">
            <mxPoint x="67" y="400" as="sourcePoint" />
          </mxGeometry>
        </mxCell>
        <mxCell id="tynLuWOkbW0R-v78KJ2Y-7" value="- (BOOL)singSongWithStrategy:(KSRecordingStrategyBase *)strategy;" style="rounded=0;whiteSpace=wrap;html=1;" vertex="1" parent="1">
          <mxGeometry x="-139" y="374" width="206" height="60" as="geometry" />
        </mxCell>
        <mxCell id="tynLuWOkbW0R-v78KJ2Y-8" style="edgeStyle=orthogonalEdgeStyle;rounded=0;orthogonalLoop=1;jettySize=auto;html=1;exitX=1;exitY=0.5;exitDx=0;exitDy=0;entryX=0;entryY=0.5;entryDx=0;entryDy=0;" edge="1" parent="1" source="tynLuWOkbW0R-v78KJ2Y-11" target="tynLuWOkbW0R-v78KJ2Y-35">
          <mxGeometry relative="1" as="geometry" />
        </mxCell>
        <mxCell id="tynLuWOkbW0R-v78KJ2Y-9" style="edgeStyle=orthogonalEdgeStyle;rounded=0;orthogonalLoop=1;jettySize=auto;html=1;entryX=0.5;entryY=0;entryDx=0;entryDy=0;strokeWidth=2;dashed=1;" edge="1" parent="1" source="tynLuWOkbW0R-v78KJ2Y-11" target="tynLuWOkbW0R-v78KJ2Y-15">
          <mxGeometry relative="1" as="geometry" />
        </mxCell>
        <mxCell id="tynLuWOkbW0R-v78KJ2Y-10" value="开始录唱" style="edgeLabel;html=1;align=center;verticalAlign=middle;resizable=0;points=[];" vertex="1" connectable="0" parent="tynLuWOkbW0R-v78KJ2Y-9">
          <mxGeometry x="-0.2784" y="2" relative="1" as="geometry">
            <mxPoint as="offset" />
          </mxGeometry>
        </mxCell>
        <mxCell id="tynLuWOkbW0R-v78KJ2Y-11" value="&lt;div&gt;录唱前置页&lt;/div&gt;&lt;div&gt;KSSingPreparationVC&lt;/div&gt;" style="rounded=0;whiteSpace=wrap;html=1;" vertex="1" parent="1">
          <mxGeometry x="134" y="-21" width="151" height="63" as="geometry" />
        </mxCell>
        <mxCell id="tynLuWOkbW0R-v78KJ2Y-12" style="edgeStyle=orthogonalEdgeStyle;rounded=0;orthogonalLoop=1;jettySize=auto;html=1;exitX=1;exitY=0.5;exitDx=0;exitDy=0;entryX=0;entryY=0.5;entryDx=0;entryDy=0;" edge="1" parent="1" source="tynLuWOkbW0R-v78KJ2Y-15" target="tynLuWOkbW0R-v78KJ2Y-49">
          <mxGeometry relative="1" as="geometry" />
        </mxCell>
        <mxCell id="tynLuWOkbW0R-v78KJ2Y-13" style="edgeStyle=orthogonalEdgeStyle;rounded=0;orthogonalLoop=1;jettySize=auto;html=1;exitX=0.25;exitY=1;exitDx=0;exitDy=0;entryX=0.25;entryY=0;entryDx=0;entryDy=0;dashed=1;strokeWidth=2;" edge="1" parent="1" source="tynLuWOkbW0R-v78KJ2Y-15" target="tynLuWOkbW0R-v78KJ2Y-24">
          <mxGeometry relative="1" as="geometry" />
        </mxCell>
        <mxCell id="tynLuWOkbW0R-v78KJ2Y-14" value="录唱完成" style="edgeLabel;html=1;align=center;verticalAlign=middle;resizable=0;points=[];rotation=90;" vertex="1" connectable="0" parent="tynLuWOkbW0R-v78KJ2Y-13">
          <mxGeometry x="-0.0918" y="3" relative="1" as="geometry">
            <mxPoint x="-2" y="-17" as="offset" />
          </mxGeometry>
        </mxCell>
        <mxCell id="tynLuWOkbW0R-v78KJ2Y-15" value="录唱页面&#xa;KSRecordingVC" style="rounded=0;whiteSpace=wrap;html=1;" vertex="1" parent="1">
          <mxGeometry x="134" y="266" width="152" height="60" as="geometry" />
        </mxCell>
        <mxCell id="tynLuWOkbW0R-v78KJ2Y-16" style="edgeStyle=orthogonalEdgeStyle;rounded=0;orthogonalLoop=1;jettySize=auto;html=1;exitX=0.75;exitY=0;exitDx=0;exitDy=0;entryX=0.842;entryY=1.017;entryDx=0;entryDy=0;entryPerimeter=0;dashed=1;strokeWidth=2;" edge="1" parent="1" source="tynLuWOkbW0R-v78KJ2Y-24" target="tynLuWOkbW0R-v78KJ2Y-15">
          <mxGeometry relative="1" as="geometry" />
        </mxCell>
        <mxCell id="tynLuWOkbW0R-v78KJ2Y-17" value="&lt;span style=&quot;font-size: 12px ; background-color: rgb(248 , 249 , 250)&quot;&gt;重录，添加视频&lt;/span&gt;" style="edgeLabel;html=1;align=center;verticalAlign=middle;resizable=0;points=[];rotation=90;" vertex="1" connectable="0" parent="tynLuWOkbW0R-v78KJ2Y-16">
          <mxGeometry x="0.249" y="-1" relative="1" as="geometry">
            <mxPoint x="-1" y="14" as="offset" />
          </mxGeometry>
        </mxCell>
        <mxCell id="tynLuWOkbW0R-v78KJ2Y-18" style="edgeStyle=orthogonalEdgeStyle;rounded=0;orthogonalLoop=1;jettySize=auto;html=1;exitX=0.25;exitY=1;exitDx=0;exitDy=0;entryX=0.25;entryY=0;entryDx=0;entryDy=0;dashed=1;strokeWidth=2;" edge="1" parent="1" source="tynLuWOkbW0R-v78KJ2Y-24" target="tynLuWOkbW0R-v78KJ2Y-30">
          <mxGeometry relative="1" as="geometry" />
        </mxCell>
        <mxCell id="tynLuWOkbW0R-v78KJ2Y-19" style="edgeStyle=orthogonalEdgeStyle;rounded=0;orthogonalLoop=1;jettySize=auto;html=1;exitX=1;exitY=0.5;exitDx=0;exitDy=0;strokeWidth=1;" edge="1" parent="1" source="tynLuWOkbW0R-v78KJ2Y-24" target="tynLuWOkbW0R-v78KJ2Y-91">
          <mxGeometry relative="1" as="geometry" />
        </mxCell>
        <mxCell id="tynLuWOkbW0R-v78KJ2Y-20" style="edgeStyle=orthogonalEdgeStyle;rounded=0;orthogonalLoop=1;jettySize=auto;html=1;exitX=1;exitY=0.5;exitDx=0;exitDy=0;entryX=0;entryY=0.75;entryDx=0;entryDy=0;strokeWidth=1;" edge="1" parent="1" source="tynLuWOkbW0R-v78KJ2Y-24" target="tynLuWOkbW0R-v78KJ2Y-92">
          <mxGeometry relative="1" as="geometry" />
        </mxCell>
        <mxCell id="tynLuWOkbW0R-v78KJ2Y-21" style="edgeStyle=orthogonalEdgeStyle;rounded=0;orthogonalLoop=1;jettySize=auto;html=1;exitX=1;exitY=0.5;exitDx=0;exitDy=0;entryX=0;entryY=0.5;entryDx=0;entryDy=0;strokeWidth=1;" edge="1" parent="1" source="tynLuWOkbW0R-v78KJ2Y-24" target="tynLuWOkbW0R-v78KJ2Y-97">
          <mxGeometry relative="1" as="geometry" />
        </mxCell>
        <mxCell id="tynLuWOkbW0R-v78KJ2Y-22" style="edgeStyle=orthogonalEdgeStyle;rounded=0;orthogonalLoop=1;jettySize=auto;html=1;exitX=1;exitY=0.5;exitDx=0;exitDy=0;entryX=0;entryY=0.5;entryDx=0;entryDy=0;strokeWidth=1;" edge="1" parent="1" source="tynLuWOkbW0R-v78KJ2Y-24" target="tynLuWOkbW0R-v78KJ2Y-103">
          <mxGeometry relative="1" as="geometry" />
        </mxCell>
        <mxCell id="tynLuWOkbW0R-v78KJ2Y-23" style="edgeStyle=orthogonalEdgeStyle;rounded=0;orthogonalLoop=1;jettySize=auto;html=1;exitX=1;exitY=0.5;exitDx=0;exitDy=0;entryX=0;entryY=0.5;entryDx=0;entryDy=0;strokeWidth=1;" edge="1" parent="1" source="tynLuWOkbW0R-v78KJ2Y-24" target="tynLuWOkbW0R-v78KJ2Y-105">
          <mxGeometry relative="1" as="geometry" />
        </mxCell>
        <mxCell id="tynLuWOkbW0R-v78KJ2Y-24" value="录唱预览页&#xa;WSRecordingCompletionVC" style="rounded=0;whiteSpace=wrap;html=1;" vertex="1" parent="1">
          <mxGeometry x="134" y="674" width="172" height="54" as="geometry" />
        </mxCell>
        <mxCell id="tynLuWOkbW0R-v78KJ2Y-25" style="edgeStyle=orthogonalEdgeStyle;rounded=0;orthogonalLoop=1;jettySize=auto;html=1;exitX=1;exitY=0.5;exitDx=0;exitDy=0;entryX=1;entryY=0.5;entryDx=0;entryDy=0;strokeWidth=1;" edge="1" parent="1" source="tynLuWOkbW0R-v78KJ2Y-30" target="tynLuWOkbW0R-v78KJ2Y-98">
          <mxGeometry relative="1" as="geometry" />
        </mxCell>
        <mxCell id="tynLuWOkbW0R-v78KJ2Y-26" value="点击发布后依赖Ksongkit编码" style="edgeLabel;html=1;align=center;verticalAlign=middle;resizable=0;points=[];" vertex="1" connectable="0" parent="tynLuWOkbW0R-v78KJ2Y-25">
          <mxGeometry x="-0.6247" y="3" relative="1" as="geometry">
            <mxPoint x="219" as="offset" />
          </mxGeometry>
        </mxCell>
        <mxCell id="tynLuWOkbW0R-v78KJ2Y-27" style="edgeStyle=orthogonalEdgeStyle;rounded=0;orthogonalLoop=1;jettySize=auto;html=1;exitX=1;exitY=0.5;exitDx=0;exitDy=0;entryX=1;entryY=0.5;entryDx=0;entryDy=0;strokeWidth=1;" edge="1" parent="1" source="tynLuWOkbW0R-v78KJ2Y-30" target="tynLuWOkbW0R-v78KJ2Y-103">
          <mxGeometry relative="1" as="geometry" />
        </mxCell>
        <mxCell id="tynLuWOkbW0R-v78KJ2Y-28" value="保存草稿" style="edgeLabel;html=1;align=center;verticalAlign=middle;resizable=0;points=[];" vertex="1" connectable="0" parent="tynLuWOkbW0R-v78KJ2Y-27">
          <mxGeometry x="0.7413" relative="1" as="geometry">
            <mxPoint x="1" as="offset" />
          </mxGeometry>
        </mxCell>
        <mxCell id="tynLuWOkbW0R-v78KJ2Y-29" style="edgeStyle=orthogonalEdgeStyle;rounded=0;orthogonalLoop=1;jettySize=auto;html=1;exitX=1;exitY=0.5;exitDx=0;exitDy=0;entryX=0;entryY=0.5;entryDx=0;entryDy=0;strokeWidth=1;" edge="1" parent="1" source="tynLuWOkbW0R-v78KJ2Y-30" target="tynLuWOkbW0R-v78KJ2Y-104">
          <mxGeometry relative="1" as="geometry" />
        </mxCell>
        <mxCell id="tynLuWOkbW0R-v78KJ2Y-30" value="发布页&#xa;KSPublishVC" style="rounded=0;whiteSpace=wrap;html=1;" vertex="1" parent="1">
          <mxGeometry x="134" y="914" width="172" height="46" as="geometry" />
        </mxCell>
        <mxCell id="tynLuWOkbW0R-v78KJ2Y-31" style="edgeStyle=orthogonalEdgeStyle;rounded=0;orthogonalLoop=1;jettySize=auto;html=1;exitX=1;exitY=0.5;exitDx=0;exitDy=0;entryX=0;entryY=0.5;entryDx=0;entryDy=0;" edge="1" parent="1" source="tynLuWOkbW0R-v78KJ2Y-35" target="tynLuWOkbW0R-v78KJ2Y-37">
          <mxGeometry relative="1" as="geometry" />
        </mxCell>
        <mxCell id="tynLuWOkbW0R-v78KJ2Y-32" style="edgeStyle=orthogonalEdgeStyle;rounded=0;orthogonalLoop=1;jettySize=auto;html=1;exitX=1;exitY=0.5;exitDx=0;exitDy=0;entryX=0;entryY=0.5;entryDx=0;entryDy=0;" edge="1" parent="1" source="tynLuWOkbW0R-v78KJ2Y-35" target="tynLuWOkbW0R-v78KJ2Y-39">
          <mxGeometry relative="1" as="geometry" />
        </mxCell>
        <mxCell id="tynLuWOkbW0R-v78KJ2Y-33" style="edgeStyle=orthogonalEdgeStyle;rounded=0;orthogonalLoop=1;jettySize=auto;html=1;exitX=1;exitY=0.5;exitDx=0;exitDy=0;entryX=0;entryY=0.5;entryDx=0;entryDy=0;" edge="1" parent="1" source="tynLuWOkbW0R-v78KJ2Y-35" target="tynLuWOkbW0R-v78KJ2Y-41">
          <mxGeometry relative="1" as="geometry" />
        </mxCell>
        <mxCell id="tynLuWOkbW0R-v78KJ2Y-34" style="edgeStyle=orthogonalEdgeStyle;rounded=0;orthogonalLoop=1;jettySize=auto;html=1;exitX=1;exitY=0.5;exitDx=0;exitDy=0;entryX=0;entryY=0.5;entryDx=0;entryDy=0;" edge="1" parent="1" source="tynLuWOkbW0R-v78KJ2Y-35" target="tynLuWOkbW0R-v78KJ2Y-43">
          <mxGeometry relative="1" as="geometry" />
        </mxCell>
        <mxCell id="tynLuWOkbW0R-v78KJ2Y-35" value="1:检测版权，前置工作&lt;br&gt;2: 下载必要文件" style="whiteSpace=wrap;html=1;" vertex="1" parent="1">
          <mxGeometry x="311" y="-20" width="96" height="61" as="geometry" />
        </mxCell>
        <mxCell id="tynLuWOkbW0R-v78KJ2Y-36" value="" style="edgeStyle=orthogonalEdgeStyle;rounded=0;orthogonalLoop=1;jettySize=auto;html=1;" edge="1" parent="1" source="tynLuWOkbW0R-v78KJ2Y-37" target="tynLuWOkbW0R-v78KJ2Y-70">
          <mxGeometry relative="1" as="geometry" />
        </mxCell>
        <mxCell id="tynLuWOkbW0R-v78KJ2Y-37" value="&lt;span&gt;独唱，发起合唱&lt;br&gt;KSSingPre&lt;br&gt;parationVC.view&lt;/span&gt;" style="whiteSpace=wrap;html=1;" vertex="1" parent="1">
          <mxGeometry x="448" y="-113" width="127" height="52" as="geometry" />
        </mxCell>
        <mxCell id="tynLuWOkbW0R-v78KJ2Y-38" value="" style="edgeStyle=orthogonalEdgeStyle;rounded=0;orthogonalLoop=1;jettySize=auto;html=1;" edge="1" parent="1" source="tynLuWOkbW0R-v78KJ2Y-39" target="tynLuWOkbW0R-v78KJ2Y-71">
          <mxGeometry relative="1" as="geometry" />
        </mxCell>
        <mxCell id="tynLuWOkbW0R-v78KJ2Y-39" value="发起合唱，选择j角色&lt;br&gt;WSChorusSection&lt;br&gt;ChooseView" style="whiteSpace=wrap;html=1;" vertex="1" parent="1">
          <mxGeometry x="448" y="-52" width="125" height="61" as="geometry" />
        </mxCell>
        <mxCell id="tynLuWOkbW0R-v78KJ2Y-40" style="edgeStyle=orthogonalEdgeStyle;rounded=0;orthogonalLoop=1;jettySize=auto;html=1;exitX=1;exitY=0.5;exitDx=0;exitDy=0;entryX=0;entryY=0.5;entryDx=0;entryDy=0;" edge="1" parent="1" source="tynLuWOkbW0R-v78KJ2Y-41" target="tynLuWOkbW0R-v78KJ2Y-75">
          <mxGeometry relative="1" as="geometry" />
        </mxCell>
        <mxCell id="tynLuWOkbW0R-v78KJ2Y-41" value="WSHookDuetPrepareView&lt;br&gt;_Products" style="rounded=0;whiteSpace=wrap;html=1;" vertex="1" parent="1">
          <mxGeometry x="448" y="25" width="140" height="53" as="geometry" />
        </mxCell>
        <mxCell id="tynLuWOkbW0R-v78KJ2Y-42" value="" style="edgeStyle=orthogonalEdgeStyle;rounded=0;orthogonalLoop=1;jettySize=auto;html=1;" edge="1" parent="1" source="tynLuWOkbW0R-v78KJ2Y-43" target="tynLuWOkbW0R-v78KJ2Y-77">
          <mxGeometry relative="1" as="geometry" />
        </mxCell>
        <mxCell id="tynLuWOkbW0R-v78KJ2Y-43" value="WSHookDuetPrepareView&lt;br&gt;_Produce" style="rounded=0;whiteSpace=wrap;html=1;" vertex="1" parent="1">
          <mxGeometry x="448" y="148" width="140" height="46" as="geometry" />
        </mxCell>
        <mxCell id="tynLuWOkbW0R-v78KJ2Y-44" style="edgeStyle=orthogonalEdgeStyle;rounded=0;orthogonalLoop=1;jettySize=auto;html=1;exitX=0.5;exitY=1;exitDx=0;exitDy=0;" edge="1" parent="1" source="tynLuWOkbW0R-v78KJ2Y-41" target="tynLuWOkbW0R-v78KJ2Y-41">
          <mxGeometry relative="1" as="geometry" />
        </mxCell>
        <mxCell id="tynLuWOkbW0R-v78KJ2Y-45" value="" style="edgeStyle=orthogonalEdgeStyle;rounded=0;orthogonalLoop=1;jettySize=auto;html=1;strokeWidth=1;" edge="1" parent="1" source="tynLuWOkbW0R-v78KJ2Y-49" target="tynLuWOkbW0R-v78KJ2Y-82">
          <mxGeometry relative="1" as="geometry" />
        </mxCell>
        <mxCell id="tynLuWOkbW0R-v78KJ2Y-46" style="edgeStyle=orthogonalEdgeStyle;rounded=0;orthogonalLoop=1;jettySize=auto;html=1;exitX=1;exitY=0.5;exitDx=0;exitDy=0;entryX=0;entryY=0.5;entryDx=0;entryDy=0;strokeWidth=1;" edge="1" parent="1" source="tynLuWOkbW0R-v78KJ2Y-49" target="tynLuWOkbW0R-v78KJ2Y-85">
          <mxGeometry relative="1" as="geometry" />
        </mxCell>
        <mxCell id="tynLuWOkbW0R-v78KJ2Y-47" style="edgeStyle=orthogonalEdgeStyle;rounded=0;orthogonalLoop=1;jettySize=auto;html=1;exitX=1;exitY=0.5;exitDx=0;exitDy=0;entryX=0;entryY=0.5;entryDx=0;entryDy=0;strokeWidth=1;" edge="1" parent="1" source="tynLuWOkbW0R-v78KJ2Y-49" target="tynLuWOkbW0R-v78KJ2Y-101">
          <mxGeometry relative="1" as="geometry" />
        </mxCell>
        <mxCell id="tynLuWOkbW0R-v78KJ2Y-48" style="edgeStyle=orthogonalEdgeStyle;rounded=0;orthogonalLoop=1;jettySize=auto;html=1;exitX=1;exitY=0.5;exitDx=0;exitDy=0;entryX=0;entryY=0.5;entryDx=0;entryDy=0;strokeWidth=1;" edge="1" parent="1" source="tynLuWOkbW0R-v78KJ2Y-49" target="tynLuWOkbW0R-v78KJ2Y-102">
          <mxGeometry relative="1" as="geometry" />
        </mxCell>
        <mxCell id="tynLuWOkbW0R-v78KJ2Y-49" value="1:检测版权,前置工作" style="whiteSpace=wrap;html=1;" vertex="1" parent="1">
          <mxGeometry x="314" y="265" width="96" height="61" as="geometry" />
        </mxCell>
        <mxCell id="tynLuWOkbW0R-v78KJ2Y-50" style="edgeStyle=orthogonalEdgeStyle;rounded=0;orthogonalLoop=1;jettySize=auto;html=1;entryX=0;entryY=0.5;entryDx=0;entryDy=0;" edge="1" parent="1" source="tynLuWOkbW0R-v78KJ2Y-61" target="tynLuWOkbW0R-v78KJ2Y-7">
          <mxGeometry relative="1" as="geometry" />
        </mxCell>
        <mxCell id="tynLuWOkbW0R-v78KJ2Y-51" style="edgeStyle=orthogonalEdgeStyle;rounded=0;orthogonalLoop=1;jettySize=auto;html=1;exitX=1;exitY=0.5;exitDx=0;exitDy=0;entryX=0;entryY=0.5;entryDx=0;entryDy=0;" edge="1" parent="1" source="tynLuWOkbW0R-v78KJ2Y-62" target="tynLuWOkbW0R-v78KJ2Y-7">
          <mxGeometry relative="1" as="geometry" />
        </mxCell>
        <mxCell id="tynLuWOkbW0R-v78KJ2Y-52" style="edgeStyle=orthogonalEdgeStyle;rounded=0;orthogonalLoop=1;jettySize=auto;html=1;exitX=1;exitY=0.5;exitDx=0;exitDy=0;entryX=0;entryY=0.5;entryDx=0;entryDy=0;" edge="1" parent="1" source="tynLuWOkbW0R-v78KJ2Y-63" target="tynLuWOkbW0R-v78KJ2Y-7">
          <mxGeometry relative="1" as="geometry" />
        </mxCell>
        <mxCell id="tynLuWOkbW0R-v78KJ2Y-53" style="edgeStyle=orthogonalEdgeStyle;rounded=0;orthogonalLoop=1;jettySize=auto;html=1;exitX=1;exitY=0.5;exitDx=0;exitDy=0;entryX=0;entryY=0.5;entryDx=0;entryDy=0;" edge="1" parent="1" source="tynLuWOkbW0R-v78KJ2Y-64" target="tynLuWOkbW0R-v78KJ2Y-7">
          <mxGeometry relative="1" as="geometry" />
        </mxCell>
        <mxCell id="tynLuWOkbW0R-v78KJ2Y-54" style="edgeStyle=orthogonalEdgeStyle;rounded=0;orthogonalLoop=1;jettySize=auto;html=1;entryX=0;entryY=0.5;entryDx=0;entryDy=0;" edge="1" parent="1" source="tynLuWOkbW0R-v78KJ2Y-65" target="tynLuWOkbW0R-v78KJ2Y-7">
          <mxGeometry relative="1" as="geometry">
            <mxPoint x="291" y="250" as="targetPoint" />
          </mxGeometry>
        </mxCell>
        <mxCell id="tynLuWOkbW0R-v78KJ2Y-55" style="edgeStyle=orthogonalEdgeStyle;rounded=0;orthogonalLoop=1;jettySize=auto;html=1;exitX=1;exitY=0.5;exitDx=0;exitDy=0;entryX=0;entryY=0.5;entryDx=0;entryDy=0;" edge="1" parent="1" source="tynLuWOkbW0R-v78KJ2Y-66" target="tynLuWOkbW0R-v78KJ2Y-7">
          <mxGeometry relative="1" as="geometry" />
        </mxCell>
        <mxCell id="tynLuWOkbW0R-v78KJ2Y-56" style="edgeStyle=orthogonalEdgeStyle;rounded=0;orthogonalLoop=1;jettySize=auto;html=1;exitX=1;exitY=0.5;exitDx=0;exitDy=0;entryX=0;entryY=0.5;entryDx=0;entryDy=0;" edge="1" parent="1" source="tynLuWOkbW0R-v78KJ2Y-67" target="tynLuWOkbW0R-v78KJ2Y-7">
          <mxGeometry relative="1" as="geometry" />
        </mxCell>
        <mxCell id="tynLuWOkbW0R-v78KJ2Y-57" style="edgeStyle=orthogonalEdgeStyle;rounded=0;orthogonalLoop=1;jettySize=auto;html=1;exitX=1;exitY=0.5;exitDx=0;exitDy=0;entryX=0;entryY=0.5;entryDx=0;entryDy=0;" edge="1" parent="1" source="tynLuWOkbW0R-v78KJ2Y-68" target="tynLuWOkbW0R-v78KJ2Y-7">
          <mxGeometry relative="1" as="geometry" />
        </mxCell>
        <mxCell id="tynLuWOkbW0R-v78KJ2Y-58" value="" style="group" vertex="1" connectable="0" parent="1">
          <mxGeometry x="-486" y="79" width="230" height="584" as="geometry" />
        </mxCell>
        <mxCell id="tynLuWOkbW0R-v78KJ2Y-59" value="" style="group" vertex="1" connectable="0" parent="tynLuWOkbW0R-v78KJ2Y-58">
          <mxGeometry y="56" width="230" height="528" as="geometry" />
        </mxCell>
        <mxCell id="tynLuWOkbW0R-v78KJ2Y-60" value="" style="group" vertex="1" connectable="0" parent="tynLuWOkbW0R-v78KJ2Y-59">
          <mxGeometry width="230" height="528" as="geometry" />
        </mxCell>
        <mxCell id="tynLuWOkbW0R-v78KJ2Y-61" value="1：独唱（音频/视频）&#xa;Normal_Recording/Filter_Recording" style="rounded=0;whiteSpace=wrap;html=1;" vertex="1" parent="tynLuWOkbW0R-v78KJ2Y-60">
          <mxGeometry width="230" height="53" as="geometry" />
        </mxCell>
        <mxCell id="tynLuWOkbW0R-v78KJ2Y-62" value="&lt;div&gt;2：发起合唱（音频/视频）&lt;/div&gt;&lt;div&gt;SponsorChorus_Recording&lt;/div&gt;" style="rounded=0;whiteSpace=wrap;html=1;" vertex="1" parent="tynLuWOkbW0R-v78KJ2Y-60">
          <mxGeometry y="67" width="230" height="53" as="geometry" />
        </mxCell>
        <mxCell id="tynLuWOkbW0R-v78KJ2Y-63" value="&lt;div&gt;3：加入合唱（音频/视频）&lt;/div&gt;&lt;div&gt;JoinChorus_Recording&lt;/div&gt;" style="rounded=0;whiteSpace=wrap;html=1;" vertex="1" parent="tynLuWOkbW0R-v78KJ2Y-60">
          <mxGeometry y="134" width="230" height="53" as="geometry" />
        </mxCell>
        <mxCell id="tynLuWOkbW0R-v78KJ2Y-64" value="&lt;div&gt;4：加入支持和唱的独唱（音频）&lt;/div&gt;&lt;div&gt;JoinNormalUgcChorus_Recording&lt;/div&gt;" style="rounded=0;whiteSpace=wrap;html=1;" vertex="1" parent="tynLuWOkbW0R-v78KJ2Y-60">
          <mxGeometry y="201" width="230" height="53" as="geometry" />
        </mxCell>
        <mxCell id="tynLuWOkbW0R-v78KJ2Y-65" value="&lt;div&gt;5：截取片段唱（音频）&lt;/div&gt;&lt;div&gt;Capture_Recording&lt;/div&gt;" style="rounded=0;whiteSpace=wrap;html=1;" vertex="1" parent="tynLuWOkbW0R-v78KJ2Y-60">
          <mxGeometry y="271" width="230" height="53" as="geometry" />
        </mxCell>
        <mxCell id="tynLuWOkbW0R-v78KJ2Y-66" value="&lt;div&gt;6：添加视频&lt;/div&gt;&lt;div&gt;addVideoScenario&lt;/div&gt;" style="rounded=0;whiteSpace=wrap;html=1;" vertex="1" parent="tynLuWOkbW0R-v78KJ2Y-60">
          <mxGeometry y="341" width="230" height="53" as="geometry" />
        </mxCell>
        <mxCell id="tynLuWOkbW0R-v78KJ2Y-67" value="&lt;div&gt;7：短MV加入&lt;/div&gt;&lt;div&gt;JoinChorus_HookMV&lt;/div&gt;" style="rounded=0;whiteSpace=wrap;html=1;" vertex="1" parent="tynLuWOkbW0R-v78KJ2Y-60">
          <mxGeometry y="408" width="230" height="53" as="geometry" />
        </mxCell>
        <mxCell id="tynLuWOkbW0R-v78KJ2Y-68" value="&lt;div&gt;8：短MV发起&lt;/div&gt;&lt;div&gt;SponsorChorus_HookMV&lt;/div&gt;" style="rounded=0;whiteSpace=wrap;html=1;" vertex="1" parent="tynLuWOkbW0R-v78KJ2Y-60">
          <mxGeometry y="475" width="230" height="53" as="geometry" />
        </mxCell>
        <mxCell id="tynLuWOkbW0R-v78KJ2Y-69" style="edgeStyle=orthogonalEdgeStyle;rounded=0;orthogonalLoop=1;jettySize=auto;html=1;exitX=1;exitY=0.5;exitDx=0;exitDy=0;entryX=0;entryY=0.5;entryDx=0;entryDy=0;strokeWidth=1;" edge="1" parent="1" source="tynLuWOkbW0R-v78KJ2Y-70" target="tynLuWOkbW0R-v78KJ2Y-78">
          <mxGeometry relative="1" as="geometry">
            <Array as="points">
              <mxPoint x="767" y="-87" />
              <mxPoint x="767" y="51" />
            </Array>
          </mxGeometry>
        </mxCell>
        <mxCell id="tynLuWOkbW0R-v78KJ2Y-70" value="歌词View，下载进度条，等Subview" style="whiteSpace=wrap;html=1;" vertex="1" parent="1">
          <mxGeometry x="607" y="-109.5" width="96.5" height="45" as="geometry" />
        </mxCell>
        <mxCell id="tynLuWOkbW0R-v78KJ2Y-71" value="歌词View，合唱邀请View" style="whiteSpace=wrap;html=1;" vertex="1" parent="1">
          <mxGeometry x="607" y="-44" width="96.5" height="45" as="geometry" />
        </mxCell>
        <mxCell id="tynLuWOkbW0R-v78KJ2Y-72" style="edgeStyle=orthogonalEdgeStyle;rounded=0;orthogonalLoop=1;jettySize=auto;html=1;exitX=1;exitY=0.5;exitDx=0;exitDy=0;entryX=0.5;entryY=0;entryDx=0;entryDy=0;dashed=1;strokeWidth=2;" edge="1" parent="1" source="tynLuWOkbW0R-v78KJ2Y-75" target="tynLuWOkbW0R-v78KJ2Y-43">
          <mxGeometry relative="1" as="geometry" />
        </mxCell>
        <mxCell id="tynLuWOkbW0R-v78KJ2Y-73" value="发起新的录唱跳转" style="edgeLabel;html=1;align=center;verticalAlign=middle;resizable=0;points=[];" vertex="1" connectable="0" parent="tynLuWOkbW0R-v78KJ2Y-72">
          <mxGeometry x="-0.1366" y="1" relative="1" as="geometry">
            <mxPoint x="-57" y="-4" as="offset" />
          </mxGeometry>
        </mxCell>
        <mxCell id="tynLuWOkbW0R-v78KJ2Y-74" style="edgeStyle=orthogonalEdgeStyle;rounded=0;orthogonalLoop=1;jettySize=auto;html=1;exitX=1;exitY=0.5;exitDx=0;exitDy=0;entryX=0;entryY=0.5;entryDx=0;entryDy=0;strokeWidth=1;" edge="1" parent="1" source="tynLuWOkbW0R-v78KJ2Y-75" target="tynLuWOkbW0R-v78KJ2Y-78">
          <mxGeometry relative="1" as="geometry" />
        </mxCell>
        <mxCell id="tynLuWOkbW0R-v78KJ2Y-75" value="视频播放View，发起新的合唱View，加入按钮" style="whiteSpace=wrap;html=1;" vertex="1" parent="1">
          <mxGeometry x="607" y="29" width="96.5" height="45" as="geometry" />
        </mxCell>
        <mxCell id="tynLuWOkbW0R-v78KJ2Y-76" style="edgeStyle=orthogonalEdgeStyle;rounded=0;orthogonalLoop=1;jettySize=auto;html=1;exitX=1;exitY=0.5;exitDx=0;exitDy=0;entryX=0;entryY=0.5;entryDx=0;entryDy=0;strokeWidth=1;" edge="1" parent="1" source="tynLuWOkbW0R-v78KJ2Y-77" target="tynLuWOkbW0R-v78KJ2Y-78">
          <mxGeometry relative="1" as="geometry" />
        </mxCell>
        <mxCell id="tynLuWOkbW0R-v78KJ2Y-77" value="GPUImageView。下载进度条，特效选择View" style="whiteSpace=wrap;html=1;rounded=0;" vertex="1" parent="1">
          <mxGeometry x="607" y="145.75" width="110" height="50.5" as="geometry" />
        </mxCell>
        <mxCell id="tynLuWOkbW0R-v78KJ2Y-78" value="WSplayer&lt;br&gt;摄像头，美颜，滤镜&lt;br&gt;Aekit" style="whiteSpace=wrap;html=1;" vertex="1" parent="1">
          <mxGeometry x="818" y="19" width="110" height="65" as="geometry" />
        </mxCell>
        <mxCell id="tynLuWOkbW0R-v78KJ2Y-79" value="" style="edgeStyle=orthogonalEdgeStyle;rounded=0;orthogonalLoop=1;jettySize=auto;html=1;strokeWidth=1;" edge="1" parent="1" source="tynLuWOkbW0R-v78KJ2Y-82" target="tynLuWOkbW0R-v78KJ2Y-86">
          <mxGeometry relative="1" as="geometry" />
        </mxCell>
        <mxCell id="tynLuWOkbW0R-v78KJ2Y-80" style="edgeStyle=orthogonalEdgeStyle;rounded=0;orthogonalLoop=1;jettySize=auto;html=1;exitX=1;exitY=0.5;exitDx=0;exitDy=0;entryX=0;entryY=0.5;entryDx=0;entryDy=0;strokeWidth=1;" edge="1" parent="1" source="tynLuWOkbW0R-v78KJ2Y-82" target="tynLuWOkbW0R-v78KJ2Y-88">
          <mxGeometry relative="1" as="geometry" />
        </mxCell>
        <mxCell id="tynLuWOkbW0R-v78KJ2Y-81" style="edgeStyle=orthogonalEdgeStyle;rounded=0;orthogonalLoop=1;jettySize=auto;html=1;exitX=1;exitY=0.5;exitDx=0;exitDy=0;entryX=0;entryY=0.5;entryDx=0;entryDy=0;strokeWidth=1;" edge="1" parent="1" source="tynLuWOkbW0R-v78KJ2Y-82" target="tynLuWOkbW0R-v78KJ2Y-90">
          <mxGeometry relative="1" as="geometry" />
        </mxCell>
        <mxCell id="tynLuWOkbW0R-v78KJ2Y-82" value="Ksongkit" style="whiteSpace=wrap;html=1;" vertex="1" parent="1">
          <mxGeometry x="450.75" y="230" width="111.5" height="52" as="geometry" />
        </mxCell>
        <mxCell id="tynLuWOkbW0R-v78KJ2Y-83" value="" style="edgeStyle=orthogonalEdgeStyle;rounded=0;orthogonalLoop=1;jettySize=auto;html=1;strokeWidth=1;" edge="1" parent="1" source="tynLuWOkbW0R-v78KJ2Y-85" target="tynLuWOkbW0R-v78KJ2Y-87">
          <mxGeometry relative="1" as="geometry" />
        </mxCell>
        <mxCell id="tynLuWOkbW0R-v78KJ2Y-84" style="edgeStyle=orthogonalEdgeStyle;rounded=0;orthogonalLoop=1;jettySize=auto;html=1;exitX=1;exitY=0.5;exitDx=0;exitDy=0;entryX=0;entryY=0.5;entryDx=0;entryDy=0;strokeWidth=1;" edge="1" parent="1" source="tynLuWOkbW0R-v78KJ2Y-85" target="tynLuWOkbW0R-v78KJ2Y-89">
          <mxGeometry relative="1" as="geometry" />
        </mxCell>
        <mxCell id="tynLuWOkbW0R-v78KJ2Y-85" value="Aekit" style="whiteSpace=wrap;html=1;" vertex="1" parent="1">
          <mxGeometry x="450.5" y="388" width="120" height="35" as="geometry" />
        </mxCell>
        <mxCell id="tynLuWOkbW0R-v78KJ2Y-86" value="KsongkitDelegate" style="whiteSpace=wrap;html=1;" vertex="1" parent="1">
          <mxGeometry x="604.25" y="211" width="111" height="37" as="geometry" />
        </mxCell>
        <mxCell id="tynLuWOkbW0R-v78KJ2Y-87" value="AekitDelegate" style="whiteSpace=wrap;html=1;" vertex="1" parent="1">
          <mxGeometry x="612.13" y="413" width="111.75" height="33" as="geometry" />
        </mxCell>
        <mxCell id="tynLuWOkbW0R-v78KJ2Y-88" value="设置音效，音量，混响等操作入口" style="whiteSpace=wrap;html=1;" vertex="1" parent="1">
          <mxGeometry x="604.25" y="264" width="111" height="37" as="geometry" />
        </mxCell>
        <mxCell id="tynLuWOkbW0R-v78KJ2Y-89" value="设置手势" style="whiteSpace=wrap;html=1;" vertex="1" parent="1">
          <mxGeometry x="612.13" y="374" width="111.75" height="28" as="geometry" />
        </mxCell>
        <mxCell id="tynLuWOkbW0R-v78KJ2Y-90" value="打分逻辑，分数计算逻辑" style="whiteSpace=wrap;html=1;" vertex="1" parent="1">
          <mxGeometry x="604.25" y="316" width="111" height="37" as="geometry" />
        </mxCell>
        <mxCell id="tynLuWOkbW0R-v78KJ2Y-91" value="Aekit" style="whiteSpace=wrap;html=1;" vertex="1" parent="1">
          <mxGeometry x="449" y="663.5" width="119.5" height="36" as="geometry" />
        </mxCell>
        <mxCell id="tynLuWOkbW0R-v78KJ2Y-92" value="Anunnaki" style="whiteSpace=wrap;html=1;" vertex="1" parent="1">
          <mxGeometry x="449" y="712.5" width="119.5" height="36" as="geometry" />
        </mxCell>
        <mxCell id="tynLuWOkbW0R-v78KJ2Y-93" value="publishContent&lt;br&gt;" style="text;html=1;align=center;verticalAlign=middle;resizable=0;points=[];autosize=1;strokeColor=none;rotation=90;" vertex="1" parent="1">
          <mxGeometry x="116" y="772" width="90" height="18" as="geometry" />
        </mxCell>
        <mxCell id="tynLuWOkbW0R-v78KJ2Y-94" value="" style="edgeStyle=orthogonalEdgeStyle;rounded=0;orthogonalLoop=1;jettySize=auto;html=1;strokeWidth=1;" edge="1" parent="1" source="tynLuWOkbW0R-v78KJ2Y-97" target="tynLuWOkbW0R-v78KJ2Y-98">
          <mxGeometry relative="1" as="geometry" />
        </mxCell>
        <mxCell id="tynLuWOkbW0R-v78KJ2Y-95" style="edgeStyle=orthogonalEdgeStyle;rounded=0;orthogonalLoop=1;jettySize=auto;html=1;exitX=1;exitY=0.5;exitDx=0;exitDy=0;entryX=0;entryY=0.5;entryDx=0;entryDy=0;strokeWidth=1;" edge="1" parent="1" source="tynLuWOkbW0R-v78KJ2Y-97" target="tynLuWOkbW0R-v78KJ2Y-99">
          <mxGeometry relative="1" as="geometry" />
        </mxCell>
        <mxCell id="tynLuWOkbW0R-v78KJ2Y-96" style="edgeStyle=orthogonalEdgeStyle;rounded=0;orthogonalLoop=1;jettySize=auto;html=1;exitX=1;exitY=0.5;exitDx=0;exitDy=0;entryX=0;entryY=0.5;entryDx=0;entryDy=0;strokeWidth=1;" edge="1" parent="1" source="tynLuWOkbW0R-v78KJ2Y-97" target="tynLuWOkbW0R-v78KJ2Y-100">
          <mxGeometry relative="1" as="geometry" />
        </mxCell>
        <mxCell id="tynLuWOkbW0R-v78KJ2Y-97" value="Ksongkit" style="whiteSpace=wrap;html=1;" vertex="1" parent="1">
          <mxGeometry x="449" y="607.5" width="109.5" height="35" as="geometry" />
        </mxCell>
        <mxCell id="tynLuWOkbW0R-v78KJ2Y-98" value="KsongkitDelegate" style="whiteSpace=wrap;html=1;" vertex="1" parent="1">
          <mxGeometry x="612.88" y="586" width="111" height="37" as="geometry" />
        </mxCell>
        <mxCell id="tynLuWOkbW0R-v78KJ2Y-99" value="设置音效，音量，混响等操作入口" style="whiteSpace=wrap;html=1;" vertex="1" parent="1">
          <mxGeometry x="612.88" y="639" width="111" height="37" as="geometry" />
        </mxCell>
        <mxCell id="tynLuWOkbW0R-v78KJ2Y-100" value="打分逻辑，分数计算逻辑" style="whiteSpace=wrap;html=1;" vertex="1" parent="1">
          <mxGeometry x="612.88" y="691" width="111" height="37" as="geometry" />
        </mxCell>
        <mxCell id="tynLuWOkbW0R-v78KJ2Y-101" value="WSplayer&lt;br&gt;摄像头，美颜，滤镜&lt;br&gt;Aekit" style="whiteSpace=wrap;html=1;" vertex="1" parent="1">
          <mxGeometry x="450.75" y="446" width="115.25" height="40" as="geometry" />
        </mxCell>
        <mxCell id="tynLuWOkbW0R-v78KJ2Y-102" value="保存草稿" style="whiteSpace=wrap;html=1;" vertex="1" parent="1">
          <mxGeometry x="450.5" y="497" width="112.5" height="29" as="geometry" />
        </mxCell>
        <mxCell id="tynLuWOkbW0R-v78KJ2Y-103" value="保存草稿" style="whiteSpace=wrap;html=1;" vertex="1" parent="1">
          <mxGeometry x="449" y="764.5" width="112.5" height="29" as="geometry" />
        </mxCell>
        <mxCell id="tynLuWOkbW0R-v78KJ2Y-104" value="uploadSDK" style="rounded=0;whiteSpace=wrap;html=1;" vertex="1" parent="1">
          <mxGeometry x="449" y="894" width="101" height="36" as="geometry" />
        </mxCell>
        <mxCell id="tynLuWOkbW0R-v78KJ2Y-105" value="Wsplayer" style="whiteSpace=wrap;html=1;" vertex="1" parent="1">
          <mxGeometry x="448" y="554" width="108" height="35" as="geometry" />
        </mxCell>
        <mxCell id="tynLuWOkbW0R-v78KJ2Y-106" value="&amp;nbsp;&amp;nbsp;" style="text;html=1;align=center;verticalAlign=middle;resizable=0;points=[];autosize=1;strokeColor=none;" vertex="1" parent="1">
          <mxGeometry x="972" y="988" width="17" height="18" as="geometry" />
        </mxCell>
        <mxCell id="tynLuWOkbW0R-v78KJ2Y-107" value="&amp;nbsp;&amp;nbsp;" style="text;html=1;align=center;verticalAlign=middle;resizable=0;points=[];autosize=1;strokeColor=none;" vertex="1" parent="1">
          <mxGeometry x="-572" y="1044" width="17" height="18" as="geometry" />
        </mxCell>
        <mxCell id="tynLuWOkbW0R-v78KJ2Y-108" value="&amp;nbsp;&amp;nbsp;" style="text;html=1;align=center;verticalAlign=middle;resizable=0;points=[];autosize=1;strokeColor=none;" vertex="1" parent="1">
          <mxGeometry x="972" y="-211" width="17" height="18" as="geometry" />
        </mxCell>
        <mxCell id="tynLuWOkbW0R-v78KJ2Y-109" value="&amp;nbsp;&amp;nbsp;" style="text;html=1;align=center;verticalAlign=middle;resizable=0;points=[];autosize=1;strokeColor=none;" vertex="1" parent="1">
          <mxGeometry x="-572" y="-211" width="17" height="18" as="geometry" />
        </mxCell>
      </root>
    </mxGraphModel>
  </diagram>
</mxfile>
